<?xml version="1.0" standalone="no"?>
<!DOCTYPE svg PUBLIC "-//W3C//DTD SVG 20010904//EN"
 "http://www.w3.org/TR/2001/REC-SVG-20010904/DTD/svg10.dtd">
<svg version="1.0" xmlns="http://www.w3.org/2000/svg"
 width="493.000000pt" height="503.000000pt" viewBox="0 0 493.000000 503.000000"
 preserveAspectRatio="xMidYMid meet">

<g transform="translate(0.000000,503.000000) scale(0.100000,-0.100000)"
fill="#000000" stroke="none">
<path d="M1429 4099 c-20 -12 -43 -34 -52 -49 -17 -28 -21 -91 -9 -121 4 -9
132 -144 285 -299 152 -156 277 -286 277 -290 0 -5 -12 -11 -27 -15 -27 -6
-27 -7 -9 -21 22 -16 231 -21 240 -5 3 5 -3 35 -14 66 -11 32 -20 60 -20 63 0
10 36 -27 91 -95 l59 -72 -75 -86 c-41 -48 -75 -82 -75 -76 0 6 9 34 20 62 12
29 19 58 16 66 -7 18 -216 19 -234 1 -17 -17 -15 -28 7 -28 11 0 22 -4 25 -9
6 -9 -126 -152 -395 -426 -75 -77 -142 -150 -148 -162 -17 -34 -13 -95 9 -130
28 -46 72 -66 133 -60 45 4 55 10 124 78 159 157 637 676 650 706 35 86 12
134 -145 302 -221 236 -576 592 -604 607 -38 20 -87 17 -129 -7z"/>
<path d="M2839 1999 c-7 -4 -9 -74 -7 -203 l3 -198 29 -24 c40 -35 90 -30 94
8 3 21 -1 27 -20 30 -23 3 -23 4 -28 197 l-5 194 -28 1 c-15 1 -32 -1 -38 -5z"/>
<path d="M1750 1771 l0 -211 35 0 35 0 -2 208 -3 207 -32 3 -33 3 0 -210z"/>
<path d="M1937 1953 c-4 -3 -7 -24 -7 -45 0 -31 -3 -38 -20 -38 -16 0 -20 -7
-20 -30 0 -23 4 -30 20 -30 18 0 20 -7 20 -85 0 -130 26 -175 102 -175 47 0
60 12 53 43 -6 22 -11 25 -35 20 -39 -7 -50 18 -50 116 l0 81 40 0 c38 0 40 2
40 30 0 28 -2 30 -40 30 l-40 0 0 45 c0 43 -1 45 -28 45 -16 0 -32 -3 -35 -7z"/>
<path d="M2545 1868 c-125 -44 -143 -209 -32 -292 40 -30 153 -30 193 0 36 26
40 40 15 54 -16 8 -28 7 -50 -5 -49 -25 -98 -19 -132 14 -16 16 -29 34 -29 40
0 7 44 11 131 11 l132 0 -7 42 c-10 63 -36 100 -86 126 -47 24 -87 27 -135 10z
m99 -58 c14 -5 32 -23 41 -40 l16 -30 -96 0 c-52 0 -95 3 -95 8 0 16 33 54 54
62 28 12 50 12 80 0z"/>
<path d="M2140 1840 l0 -30 75 0 c41 0 75 -2 75 -6 0 -3 -36 -48 -80 -100 -52
-62 -80 -104 -80 -120 l0 -24 136 0 135 0 -3 28 c-3 27 -4 27 -87 32 l-84 5
81 97 c56 66 82 105 82 122 l0 26 -125 0 -125 0 0 -30z"/>
<path d="M2621 1317 c-43 -15 -76 -72 -66 -116 16 -73 119 -109 170 -60 23 23
9 25 -41 7 -86 -31 -139 99 -58 143 20 10 31 10 60 0 24 -9 39 -10 46 -3 23
23 -63 45 -111 29z"/>
<path d="M2780 1220 c0 -82 3 -100 15 -100 11 0 15 12 15 45 l0 45 50 0 c28 0
50 5 50 10 0 6 -22 10 -50 10 l-50 0 0 35 0 35 55 0 c30 0 55 5 55 10 0 6 -30
10 -70 10 l-70 0 0 -100z"/>
<path d="M2960 1220 l0 -100 70 0 c40 0 70 4 70 10 0 6 -25 10 -55 10 l-55 0
0 35 0 35 50 0 c62 0 66 16 5 23 -53 5 -52 5 -57 37 -3 24 0 25 55 28 81 4 71
22 -13 22 l-70 0 0 -100z"/>
</g>
</svg>
